
<svg width="150px" height="125px" viewBox="0 0 150 125" version="1.1" xmlns="http://www.w3.org/2000/svg" xmlns:xlink="http://www.w3.org/1999/xlink">
    <!-- Generator: Sketch 46.1 (44463) - http://www.bohemiancoding.com/sketch -->
    <desc>Created with Sketch.</desc>
    <defs>
        <linearGradient x1="50%" y1="0%" x2="50%" y2="100%" id="linearGradient-1">
            <stop stop-color="#B4EC51" offset="0%"></stop>
            <stop stop-color="#429321" offset="100%"></stop>
        </linearGradient>
    </defs>
    <g id="Build" stroke="none" stroke-width="1" fill="none" fill-rule="evenodd">
        <g id="Desktop-HD" transform="translate(-645.000000, -344.000000)" fill-rule="nonzero" fill="url(#linearGradient-1)">
            <g id="Collision" transform="translate(645.000000, 344.000000)">
                <g id="Asteroid" transform="translate(100.000000, 0.000000)">
                    <path d="M38,28 L24.25,41.75 C22,44 19.25,45 16.25,45 C13.25,45 10.5,43.75 8.25,41.75 C6,39.5 5,36.75 5,33.75 C5,30.75 6.25,28 8.25,25.75 L27.25,6.75 C28.25,5.75 28.25,4.25 27.25,3.25 C26.25,2.25 24.75,2.25 23.75,3.25 L4.75,22.25 C1.75,25.25 0,29.5 0,33.75 C0,38 1.75,42.25 4.75,45.25 C7.75,48.25 12,50 16.25,50 C20.5,50 24.75,48.25 27.75,45.25 L41.5,31.5 C42.5,30.5 42.5,29 41.5,28 C40.5,27 39,27 38,28 Z" id="Shape"></path>
                    <path d="M25,33.75 C25,38.58205 21.08205,42.5 16.25,42.5 C11.41795,42.5 7.5,38.58205 7.5,33.75 C7.5,28.91795 11.41795,25 16.25,25 C21.08205,25 25,28.91795 25,33.75" id="Shape"></path>
                    <path d="M26.75,15.75 C25.75,14.75 24.25,14.75 23.25,15.75 L20.75,18.25 C19.75,19.25 19.75,20.75 20.75,21.75 C21.25,22.25 22.5,23 24.25,21.75 L26.75,19.25 C27.75,18.25 27.75,16.75 26.75,15.75 Z" id="Shape"></path>
                    <path d="M43.25,13.25 L40.75,15.75 C39.75,16.75 39.75,18.25 40.75,19.25 C41.25,19.75 42.5,20.5 44.25,19.25 L46.75,16.75 C47.75,15.75 47.75,14.25 46.75,13.25 C45.75,12.25 44.25,12.25 43.25,13.25 Z" id="Shape"></path>
                    <path d="M28.25,29.25 C28.75,29.75 30.25,30.5 31.75,29.25 L36.75,24.25 C37.75,23.25 37.75,21.75 36.75,20.75 C35.75,19.75 34.25,19.75 33.25,20.75 L28.25,25.75 C27.25,26.75 27.25,28.25 28.25,29.25 Z" id="Shape"></path>
                    <path d="M49.25,0.75 C48.25,-0.25 46.75,-0.25 45.75,0.75 L43.25,3.25 C42.25,4.25 42.25,5.75 43.25,6.75 C43.75,7.25 45,8.25 46.75,6.75 L49.25,4.25 C50.25,3.25 50.25,1.75 49.25,0.75 Z" id="Shape"></path>
                    <path d="M34.25,14.25 L39.25,9.25 C40.25,8.25 40.25,6.75 39.25,5.75 C38.25,4.75 36.75,4.75 35.75,5.75 L30.75,10.75 C29.75,11.75 29.75,13.25 30.75,14.25 C31.25,14.75 32.5,15.75 34.25,14.25 Z" id="Shape"></path>
                </g>
                <g id="Earth" transform="translate(0.000000, 25.000000)">
                    <path d="M98.4980598,38.0933989 C97.5229991,34.1175678 96.1001535,30.3174451 94.2337225,26.7805636 C94.1332875,26.5838666 94.0495863,26.3787913 93.949162,26.1862728 C92.7439417,23.9639901 91.325317,21.8798099 89.8062038,19.875127 C88.4168258,18.0420813 86.952135,16.2800689 85.3326403,14.6604446 C85.0271464,14.3507478 84.6798072,14.0787105 84.3659572,13.7773813 C82.3614347,11.8731951 80.2313552,10.1028258 77.9339374,8.55016357 C76.1052165,7.31559778 74.1676508,6.2442051 72.1798407,5.25648819 C69.8321787,4.08042045 67.3966695,3.04256236 64.8480303,2.24737471 C64.4923242,2.13856407 64.1240625,2.06741288 63.7641891,1.96696982 C59.3827579,0.715583171 54.775281,0 49.9957523,0 C22.4224543,0 0,22.4242488 0,49.9997536 C0,54.7791292 0.715600897,59.3869748 1.97527574,63.7692923 C2.07571076,64.129216 2.14266745,64.4975072 2.25565819,64.8532203 C3.04658268,67.3977779 4.08855723,69.833482 5.26453086,72.1856175 C6.2521473,74.1735866 7.32347567,76.1154858 8.55794265,77.9401747 C10.1104807,80.2377763 11.8807083,82.3680264 13.7847421,84.3727092 C14.0860472,84.6907843 14.3580627,85.0381405 14.6677347,85.3394697 C16.2872294,86.959094 18.0489937,88.4239021 19.8819998,89.8133913 C21.8865222,91.3326261 23.9705356,92.7471858 26.1926405,93.956681 C26.3851436,94.0613089 26.5901918,94.140832 26.7868837,94.2412643 C30.3272318,96.1078447 34.1270504,97.5307613 38.0988137,98.5059429 C41.9195228,99.4476006 45.8992138,100 50.0042477,100 C77.5732605,100 100,77.5714656 100,50.0002464 C99.991631,45.8946697 99.4392351,41.914553 98.4977063,38.0938596 L98.4980598,38.0933989 Z M49.9967807,3.57419812 C71.497911,3.57419812 89.5719304,18.2844196 94.8331188,38.1555396 C93.6990332,39.3106081 91.8661342,38.5991605 91.1086131,34.355417 C89.7275913,26.625533 86.9740111,32.4176962 84.7644405,35.7323708 C82.559048,39.0427599 86.6978281,45.9398503 83.1114139,43.4580763 C79.5208215,40.9763023 78.144085,35.4603442 74.8338537,29.3831907 C71.5194443,23.3147154 62.4216915,26.9014167 65.4515618,28.5587219 C68.4896811,30.2160592 67.1129446,31.869111 60.4842329,35.4599907 C53.8680555,39.0466919 45.3102414,25.2525112 43.1044204,24.4192891 C40.8990279,23.5948203 49.1765881,38.2134698 50.8295076,40.6948153 C52.4867123,43.1765893 59.1028897,37.6606312 59.3874288,40.422778 C59.6636225,43.1765786 53.0432563,51.1827747 48.0754989,53.9405394 C43.10817,56.7026969 49.7327036,66.3579806 47.5272897,66.0815613 C45.3177191,65.8011564 42.8403218,70.4926992 42.011773,74.9080156 C41.1873702,79.323332 37.5926319,83.7344699 32.0771152,81.805106 C26.5615986,79.875742 21.5941626,74.9080156 23.2513673,67.4580866 C24.908572,60.0081576 19.1167653,51.7343276 18.5643994,48.4194387 C18.0120121,45.1090496 14.4256193,45.6614596 9.45829043,45.3852546 C7.21100986,45.2596981 5.60404945,42.9787995 4.6792973,40.0910748 C9.21146131,19.2407019 27.7959585,3.57158392 49.9966522,3.57158392 L49.9967807,3.57419812 Z M51.6498073,76.2864051 C49.3774582,75.6670116 47.5152053,69.9417248 51.3777918,68.288673 C55.240389,66.6313357 57.4457814,60.290941 57.7219644,63.8733567 C57.9939799,67.4642364 57.7219644,77.9439567 51.6497966,76.2865123 L51.6498073,76.2864051 Z" id="Shape"></path>
                </g>
            </g>
        </g>
    </g>
</svg>
