
<svg width="69px" height="69px" viewBox="0 0 69 69" version="1.1" xmlns="http://www.w3.org/2000/svg" xmlns:xlink="http://www.w3.org/1999/xlink">
    <!-- Generator: Sketch 46.1 (44463) - http://www.bohemiancoding.com/sketch -->
    <desc>Created with Sketch.</desc>
    <defs>
        <linearGradient x1="50%" y1="0%" x2="50%" y2="100%" id="linearGradient-1">
            <stop stop-color="#B4EC51" offset="0%"></stop>
            <stop stop-color="#429321" offset="100%"></stop>
        </linearGradient>
    </defs>
    <g id="Play" stroke="none" stroke-width="1" fill="none" fill-rule="evenodd">
        <g id="Desktop-HD" transform="translate(-364.000000, -127.000000)" fill-rule="nonzero" fill="url(#linearGradient-1)">
            <g id="Asteroid" transform="translate(364.000000, 127.000000)">
                <path d="M52.1656805,38.4315789 L33.2899408,57.5368421 C30.2011834,60.6631579 26.4260355,62.0526316 22.3076923,62.0526316 C18.1893491,62.0526316 14.4142012,60.3157895 11.3254438,57.5368421 C8.23668639,54.4105263 6.86390533,50.5894737 6.86390533,46.4210526 C6.86390533,42.2526316 8.57988166,38.4315789 11.3254438,35.3052632 L37.408284,8.90526316 C38.7810651,7.51578947 38.7810651,5.43157895 37.408284,4.04210526 C36.035503,2.65263158 33.9763314,2.65263158 32.6035503,4.04210526 L6.52071006,30.4421053 C2.40236686,34.6105263 0,40.5157895 0,46.4210526 C0,52.3263158 2.40236686,58.2315789 6.52071006,62.4 C10.6390533,66.5684211 16.4733728,69 22.3076923,69 C28.1420118,69 33.9763314,66.5684211 38.0946746,62.4 L56.9704142,43.2947368 C58.3431953,41.9052632 58.3431953,39.8210526 56.9704142,38.4315789 C55.5976331,37.0421053 53.5384615,37.0421053 52.1656805,38.4315789 Z" id="Shape"></path>
                <path d="M34,47 C34,53.6268114 28.6268114,59 22,59 C15.3731886,59 10,53.6268114 10,47 C10,40.3731886 15.3731886,35 22,35 C28.6268114,35 34,40.3731886 34,47" id="Shape"></path>
                <path d="M37,22.0088688 C35.6666667,20.6637104 33.6666667,20.6637104 32.3333333,22.0088688 L29,25.371765 C27.6666667,26.7169235 27.6666667,28.7346612 29,30.0798196 C29.6666667,30.7523988 31.3333333,31.7612677 33.6666667,30.0798196 L37,26.7169235 C38.3333333,25.371765 38.3333333,23.3540273 37,22.0088688 Z" id="Shape"></path>
                <path d="M59.3333333,18.0088688 L56,21.371765 C54.6666667,22.7169235 54.6666667,24.7346612 56,26.0798196 C56.6666667,26.7523988 58.3333333,27.7612677 60.6666667,26.0798196 L64,22.7169235 C65.3333333,21.371765 65.3333333,19.3540273 64,18.0088688 C62.6666667,16.6637104 60.6666667,16.6637104 59.3333333,18.0088688 Z" id="Shape"></path>
                <path d="M39.05,41.0359481 C39.75,41.7405939 41.85,42.7975627 43.95,41.0359481 L50.95,33.9894897 C52.35,32.580198 52.35,30.4662605 50.95,29.0569688 C49.55,27.6476771 47.45,27.6476771 46.05,29.0569688 L39.05,36.1034272 C37.65,37.5127189 37.65,39.6266564 39.05,41.0359481 Z" id="Shape"></path>
                <path d="M68,0.994400936 C66.6666667,-0.331466979 64.6666667,-0.331466979 63.3333333,0.994400936 L60,4.30907072 C58.6666667,5.63493864 58.6666667,7.62374051 60,8.94960843 C60.6666667,9.61254239 62.3333333,10.9384103 64.6666667,8.94960843 L68,5.63493864 C69.3333333,4.30907072 69.3333333,2.32026885 68,0.994400936 Z" id="Shape"></path>
                <path d="M46.95,19.8955429 L53.95,12.9249792 C55.35,11.5308664 55.35,9.4396973 53.95,8.04558456 C52.55,6.65147181 50.45,6.65147181 49.05,8.04558456 L42.05,15.0161483 C40.65,16.410261 40.65,18.5014301 42.05,19.8955429 C42.75,20.5925992 44.5,21.986712 46.95,19.8955429 Z" id="Shape"></path>
            </g>
        </g>
    </g>
</svg>
