
<svg width="71px" height="68px" viewBox="0 0 71 68" version="1.1" xmlns="http://www.w3.org/2000/svg" xmlns:xlink="http://www.w3.org/1999/xlink">
    <!-- Generator: Sketch 46.1 (44463) - http://www.bohemiancoding.com/sketch -->
    <desc>Created with Sketch.</desc>
    <defs></defs>
    <g id="Play" stroke="none" stroke-width="1" fill="" fill-rule="evenodd">
        <g id="Not-Playing" transform="translate(-889.000000, -125.000000)" fill-rule="nonzero" fill="#417505">
            <g id="Pause" transform="translate(889.000000, 125.000000)">
                <path d="M35.2167474,0 C15.7388316,0 0,15.0738105 0,33.7287158 C0,52.3836211 15.8524316,67.4574316 35.2167474,67.4574316 C54.5810632,67.4574316 70.4334947,52.2748211 70.4334947,33.7287158 C70.4334947,15.1826105 54.6946632,1.27149753e-15 35.2167474,0 Z M35.2167474,64.2027368 C17.6655474,64.2027368 3.39828421,50.5383158 3.39828421,33.7287158 C3.39828421,16.9191158 17.6655474,3.25469474 35.2167474,3.25469474 C52.7679474,3.25469474 67.0352105,16.9191158 67.0352105,33.7287158 C67.0352105,50.5383158 52.7679474,64.2027368 35.2167474,64.2027368 Z" id="Shape"></path>
                <path d="M27.6526316,17.8947368 C25.9593937,17.8947368 24.6631579,19.1459011 24.6631579,20.7802632 L24.6631579,45.7881579 C24.6631579,47.42252 25.9593937,48.6736842 27.6526316,48.6736842 C29.3458695,48.6736842 30.6421053,47.42252 30.6421053,45.7881579 L30.6421053,20.7802632 C30.6421053,19.1459011 29.3458695,17.8947368 27.6526316,17.8947368 Z" id="Shape"></path>
                <path d="M43.3473684,17.8947368 C41.6541305,17.8947368 40.3578947,19.1459011 40.3578947,20.7802632 L40.3578947,45.7881579 C40.3578947,47.42252 41.6541305,48.6736842 43.3473684,48.6736842 C45.0406063,48.6736842 46.3368421,47.42252 46.3368421,45.7881579 L46.3368421,20.7802632 C46.3368421,19.1459011 45.0406063,17.8947368 43.3473684,17.8947368 Z" id="Shape"></path>
            </g>
        </g>
    </g>
</svg>
