
<svg width="72px" height="69px" viewBox="0 0 72 69" version="1.1" xmlns="http://www.w3.org/2000/svg" xmlns:xlink="http://www.w3.org/1999/xlink">
    <!-- Generator: Sketch 46.1 (44463) - http://www.bohemiancoding.com/sketch -->
    <desc>Created with Sketch.</desc>
    <defs></defs>
    <g id="Play" stroke="none" stroke-width="1" fill="none" fill-rule="evenodd">
        <g id="Playing" transform="translate(-807.000000, -123.000000)" fill-rule="nonzero" fill="#417505">
            <g id="Play" transform="translate(807.000000, 123.000000)">
                <path d="M36,0.631709375 C16.4535,0.631709375 0.65925,15.7678656 0.65925,34.4999281 C0.65925,53.2319906 16.5675,68.3681469 36,68.3681469 C55.4325,68.3681469 71.34075,53.1227406 71.34075,34.4999281 C71.34075,15.8771156 55.5465,0.631709375 36,0.631709375 Z M36,65.0999906 C18.387,65.0999906 4.0695,51.3790531 4.0695,34.4999281 C4.0695,17.6208031 18.387,3.89986563 36,3.89986563 C53.613,3.89986563 67.9305,17.6208031 67.9305,34.4999281 C67.9305,51.3790531 53.613,65.0999906 36,65.0999906 Z" id="Shape"></path>
                <path d="M48.72675,32.5399688 L27.249,22.1935625 C25.7724,21.4298906 23.953125,22.5192425 23.953125,24.1533062 L23.953125,44.73615 C23.953125,46.3701563 25.772475,47.4595656 27.249,46.6958938 L48.72675,36.3494875 C50.4318,35.6981203 50.4318,33.3004063 48.72675,32.5395375 L48.72675,32.5399688 Z" id="Shape"></path>
            </g>
        </g>
    </g>
</svg>
